<svg width="104" height="36" fill="none" xmlns="http://www.w3.org/2000/svg"><g clip-path="url(#clip0)"><path fill-rule="evenodd" clip-rule="evenodd" d="M13.44 35.424c7.296 0 12.48-3.84 12.48-10.32 0-7.104-5.712-8.88-10.8-10.416-5.232-1.584-6.048-2.64-6.048-4.176 0-1.344 1.2-2.544 3.6-2.544 3.072 0 4.656 1.488 5.808 3.888l6.48-3.792C22.512 3.12 18.192.48 12.672.48c-5.808 0-11.28 3.744-11.28 10.224 0 6.432 4.896 8.832 9.888 10.224 5.04 1.392 6.96 2.208 6.96 4.272 0 1.296-.912 2.736-4.56 2.736-3.792 0-5.856-1.872-7.056-4.656L0 27.12c1.872 4.944 6.384 8.304 13.44 8.304zm28.144-17.76v-6.912H36.64v-6.72l-7.2 2.16v4.56H25.6v6.912h3.84v8.496c0 6.72 2.736 9.552 12.144 8.592v-6.528c-3.168.192-4.944 0-4.944-2.064v-8.496h4.944zm8.992 7.968h17.04c.192-.912.288-1.872.288-2.88 0-7.248-5.184-12.672-12.192-12.672-7.584 0-12.768 5.52-12.768 12.672 0 7.152 5.088 12.672 13.296 12.672 4.56 0 8.112-1.68 10.464-4.944l-5.76-3.312c-.96 1.056-2.64 1.824-4.608 1.824-2.64 0-4.848-.864-5.76-3.36zm-.144-5.376c.672-2.448 2.496-3.792 5.232-3.792 2.16 0 4.32 1.008 5.088 3.792h-10.32zM73.584 8.64c2.352 0 4.32-1.968 4.32-4.32 0-2.352-1.968-4.32-4.32-4.32-2.352 0-4.32 1.968-4.32 4.32 0 2.352 1.968 4.32 4.32 4.32zm-3.6 26.112h7.2v-24h-7.2v24zM94.528 10.08c-3.168 0-5.568 1.152-6.864 2.928v-2.256h-7.2v24h7.2V21.648c0-3.408 1.824-4.944 4.464-4.944 2.304 0 4.176 1.392 4.176 4.368v13.68h7.2V20.016c0-6.48-4.128-9.936-8.976-9.936z" fill="#fff"/></g><defs><clipPath id="clip0"><path fill="#fff" d="M0 0h103.504v35.424H0z"/></clipPath></defs></svg>