<svg width="216" height="37" viewBox="0 0 216 37" fill="none" xmlns="http://www.w3.org/2000/svg">
<path fill-rule="evenodd" clip-rule="evenodd" d="M13.44 36.424C20.736 36.424 25.92 32.584 25.92 26.104C25.92 19 20.208 17.224 15.12 15.688C9.88796 14.104 9.07199 13.048 9.07199 11.512C9.07199 10.168 10.272 8.968 12.672 8.968C15.744 8.968 17.328 10.456 18.48 12.856L24.96 9.064C22.512 4.12 18.192 1.48 12.672 1.48C6.86397 1.48 1.392 5.224 1.392 11.704C1.392 18.136 6.288 20.536 11.28 21.928C16.32 23.32 18.24 24.136 18.24 26.2C18.24 27.496 17.328 28.936 13.68 28.936C9.88796 28.936 7.82399 27.064 6.62399 24.28L-3.05176e-05 28.12C1.87197 33.064 6.38397 36.424 13.44 36.424ZM41.584 18.664V11.752H36.64V5.032L29.44 7.192V11.752H25.6V18.664H29.44V27.16C29.44 33.88 32.176 36.712 41.584 35.752V29.224C38.416 29.416 36.64 29.224 36.64 27.16V18.664H41.584ZM50.576 26.632H67.616C67.808 25.72 67.904 24.76 67.904 23.752C67.904 16.504 62.72 11.08 55.712 11.08C48.128 11.08 42.944 16.6 42.944 23.752C42.944 30.904 48.032 36.424 56.24 36.424C60.8 36.424 64.352 34.744 66.704 31.48L60.944 28.168C59.984 29.224 58.304 29.992 56.336 29.992C53.696 29.992 51.488 29.128 50.576 26.632ZM50.432 21.256C51.104 18.808 52.928 17.464 55.664 17.464C57.824 17.464 59.984 18.472 60.752 21.256H50.432ZM73.584 9.64C75.936 9.64 77.904 7.672 77.904 5.32C77.904 2.968 75.936 1 73.584 1C71.232 1 69.264 2.968 69.264 5.32C69.264 7.672 71.232 9.64 73.584 9.64ZM69.984 35.752H77.184V11.752H69.984V35.752ZM94.528 11.08C91.36 11.08 88.96 12.232 87.664 14.008V11.752H80.464V35.752H87.664V22.648C87.664 19.24 89.488 17.704 92.128 17.704C94.432 17.704 96.304 19.096 96.304 22.072V35.752H103.504V21.016C103.504 14.536 99.376 11.08 94.528 11.08Z" fill="white"/>
<path d="M115.573 35.6254L130.81 0.580688" stroke="white" stroke-width="2"/>
<path d="M154.708 35V31.0947H154.624C153.924 32.4525 152.888 33.5303 151.516 34.3281C150.144 35.126 148.598 35.5249 146.876 35.5249C144.23 35.5249 142.068 34.5591 140.388 32.6274C138.722 30.6958 137.89 28.0293 137.89 24.6279C137.89 21.1566 138.799 18.3501 140.619 16.2085C142.453 14.0529 144.825 12.9751 147.737 12.9751C150.956 12.9751 153.252 14.2979 154.624 16.9434H154.708V3.16989H156.639V35H154.708ZM154.708 21.9194C154.708 19.9178 154.071 18.2241 152.797 16.8384C151.537 15.4386 149.836 14.7388 147.695 14.7388C145.441 14.7388 143.58 15.6066 142.11 17.3423C140.64 19.064 139.905 21.4365 139.905 24.46C139.905 27.4274 140.563 29.723 141.879 31.3467C143.209 32.9564 144.916 33.7612 147.002 33.7612C149.451 33.7612 151.348 33.0054 152.692 31.4937C154.036 29.9679 154.708 28.1133 154.708 25.9297V21.9194ZM171.316 35.5249C168.181 35.5249 165.696 34.4961 163.863 32.4385C162.043 30.3669 161.133 27.6794 161.133 24.376C161.133 20.8066 162.085 18.0142 163.989 15.9985C165.906 13.9829 168.426 12.9751 171.547 12.9751C174.613 12.9751 177.034 13.9759 178.812 15.9775C180.59 17.9792 181.478 20.7507 181.478 24.292C181.478 27.6374 180.569 30.3459 178.749 32.4175C176.943 34.4891 174.466 35.5249 171.316 35.5249ZM171.463 14.7388C168.93 14.7388 166.907 15.5926 165.395 17.3003C163.898 19.008 163.149 21.3805 163.149 24.418C163.149 27.2314 163.884 29.492 165.353 31.1997C166.823 32.9074 168.832 33.7612 171.379 33.7612C173.969 33.7612 175.963 32.9214 177.363 31.2417C178.763 29.562 179.463 27.2314 179.463 24.25C179.463 21.1846 178.763 18.833 177.363 17.1953C175.977 15.5576 174.011 14.7388 171.463 14.7388ZM199.893 34.0552C198.297 35.035 196.393 35.5249 194.182 35.5249C191.256 35.5249 188.898 34.5241 187.106 32.5225C185.315 30.5068 184.419 27.8753 184.419 24.6279C184.419 21.2126 185.426 18.4201 187.442 16.2505C189.458 14.0669 192.047 12.9751 195.211 12.9751C196.848 12.9751 198.437 13.311 199.977 13.9829V16.1665C198.437 15.2147 196.75 14.7388 194.917 14.7388C192.397 14.7388 190.354 15.6486 188.786 17.4683C187.218 19.2739 186.434 21.6185 186.434 24.502C186.434 27.2874 187.148 29.527 188.576 31.2207C190.018 32.9144 191.914 33.7612 194.266 33.7612C196.421 33.7612 198.297 33.1873 199.893 32.0396V34.0552ZM203.106 34.0552V31.7246C203.834 32.3545 204.716 32.8514 205.752 33.2153C206.787 33.5793 207.683 33.7612 208.439 33.7612C211.812 33.7612 213.499 32.3825 213.499 29.625C213.499 28.6732 213.128 27.8613 212.386 27.1895C211.644 26.5176 210.441 25.8247 208.775 25.1108C206.717 24.215 205.269 23.2912 204.429 22.3394C203.603 21.3735 203.19 20.2048 203.19 18.833C203.19 17.0833 203.855 15.6696 205.185 14.5918C206.528 13.514 208.18 12.9751 210.14 12.9751C211.987 12.9751 213.569 13.353 214.885 14.1089V16.2925C213.289 15.2567 211.637 14.7388 209.93 14.7388C208.516 14.7388 207.375 15.1097 206.507 15.8516C205.64 16.5794 205.206 17.5312 205.206 18.707C205.206 19.7288 205.479 20.5617 206.024 21.2056C206.57 21.8354 207.774 22.5633 209.636 23.3892C211.875 24.397 213.415 25.3348 214.255 26.2026C215.095 27.0565 215.515 28.1973 215.515 29.625C215.515 31.3327 214.871 32.7464 213.583 33.8662C212.309 34.972 210.546 35.5249 208.292 35.5249C206.22 35.5249 204.492 35.035 203.106 34.0552Z" fill="#66FCF1"/>
</svg>
